<?xml version="1.0" standalone="no"?>
<!DOCTYPE svg PUBLIC "-//W3C//DTD SVG 20010904//EN"
 "http://www.w3.org/TR/2001/REC-SVG-20010904/DTD/svg10.dtd">
<svg version="1.0" xmlns="http://www.w3.org/2000/svg"
 width="500.000000pt" height="500.000000pt" viewBox="0 0 500.000000 500.000000"
 preserveAspectRatio="xMidYMid meet">

<g transform="translate(0.000000,500.000000) scale(0.100000,-0.100000)"
fill="#000000" stroke="none">
<path d="M1369 2900 c-12 -21 -39 -46 -64 -60 l-43 -23 14 -34 14 -33 -50 -27
c-56 -32 -61 -49 -24 -84 14 -13 30 -34 35 -46 9 -24 30 -22 101 13 31 14 44
16 73 7 29 -9 38 -8 59 8 13 10 34 19 45 19 27 0 28 -36 1 -122 -26 -84 -69
-125 -193 -182 -165 -77 -267 -158 -267 -212 0 -27 3 -28 31 -14 15 8 23 7 35
-5 16 -16 47 -13 94 10 14 7 49 20 77 29 46 15 55 23 71 59 27 61 72 101 142
126 108 40 157 106 139 189 -10 48 7 39 19 -10 25 -97 -13 -159 -138 -224
l-55 -29 50 -3 c68 -4 198 14 236 33 16 9 34 27 39 40 11 29 17 31 42 8 15
-13 14 -6 -8 41 -25 55 -26 62 -19 175 8 135 -3 173 -57 195 -38 16 -21 31 26
22 69 -13 96 -71 96 -206 0 -105 24 -161 107 -251 l55 -59 88 0 88 0 31 50
c40 64 71 158 71 212 0 32 3 39 12 30 18 -18 21 -159 4 -222 -8 -30 -13 -56
-12 -57 4 -5 161 38 168 46 4 4 3 22 -2 41 -14 49 -12 104 6 180 20 85 12 125
-34 169 l-37 34 44 -6 c29 -3 53 -15 70 -31 26 -26 26 -29 26 -169 0 -153 10
-195 43 -178 9 4 39 12 66 15 l48 8 -6 52 c-5 35 -2 76 8 119 17 72 10 140
-19 197 -19 37 -2 41 39 9 41 -32 48 -62 47 -197 -1 -68 1 -133 5 -146 3 -13
31 -41 64 -64 l59 -42 19 28 c55 78 63 121 42 232 -13 74 -6 138 22 193 25 50
31 43 16 -21 -12 -54 -6 -94 26 -177 8 -22 15 -56 16 -76 0 -44 -26 -134 -51
-175 -10 -17 -19 -34 -19 -37 0 -10 93 -37 127 -37 l33 0 -5 78 c-5 63 -3 83
12 112 10 19 26 37 37 38 17 4 17 2 -3 -19 -26 -28 -27 -71 -5 -151 15 -52 19
-58 44 -58 14 0 60 12 101 27 54 19 100 27 172 31 108 5 147 -2 284 -54 93
-34 143 -43 143 -23 0 27 -24 49 -72 67 -76 29 -108 44 -108 53 0 16 88 -5
139 -33 59 -33 87 -31 75 4 -9 29 -25 41 -99 77 -86 42 -180 53 -370 46 -154
-6 -162 -6 -205 17 -45 23 -45 24 -75 126 -21 72 -41 117 -67 152 -21 28 -36
50 -34 50 2 0 23 -7 46 -15 38 -13 42 -13 36 1 -3 9 -6 26 -6 39 0 34 -78 58
-202 61 l-97 2 -10 -29 c-8 -23 -5 -44 14 -104 28 -84 30 -116 14 -181 -17
-65 -24 -61 -24 14 -1 56 -7 81 -39 151 -30 65 -37 92 -33 121 4 33 2 39 -17
44 -61 16 -69 10 -110 -75 -33 -71 -38 -89 -33 -133 2 -28 8 -60 12 -71 7 -17
5 -17 -20 5 -60 54 -72 145 -30 225 l26 47 -33 -5 c-18 -3 -101 -18 -185 -33
-176 -32 -172 -23 -67 -134 75 -79 87 -110 73 -183 -10 -58 -29 -86 -29 -46 0
14 -7 50 -16 80 -14 46 -29 66 -105 140 -49 48 -89 91 -89 98 0 6 -12 11 -26
11 -25 0 -26 -2 -20 -39 3 -21 24 -77 47 -124 34 -71 41 -96 41 -145 0 -60
-27 -142 -52 -157 -18 -11 -19 -3 -4 55 12 48 12 62 -1 114 -9 33 -36 93 -60
132 -25 39 -50 94 -56 122 -11 44 -15 51 -41 54 -24 4 -27 2 -21 -11 4 -9 7
-75 8 -146 0 -140 4 -154 63 -217 30 -33 25 -43 -14 -28 -75 29 -104 89 -113
234 -5 78 -13 125 -28 156 l-20 45 -96 23 c-53 13 -118 24 -144 25 -45 2 -48
1 -51 -26 -2 -19 11 -50 42 -100 70 -112 99 -182 100 -243 0 -32 -5 -59 -13
-66 -10 -11 -11 -6 -6 24 10 51 -32 139 -113 239 -64 79 -82 113 -82 154 0 15
-5 23 -12 21 -60 -19 -68 -17 -68 13 0 27 -3 29 -35 28 -30 -1 -39 -7 -56 -37z"/>
<path d="M3270 2771 c0 -28 25 -69 50 -85 29 -16 30 -16 30 1 0 37 -12 60 -40
76 -32 19 -40 21 -40 8z"/>
<path d="M3410 2666 c0 -27 6 -38 32 -54 30 -19 33 -19 45 -4 19 25 17 28 -32
62 l-45 31 0 -35z"/>
<path d="M3551 2576 l-21 -22 30 -17 c28 -17 31 -17 55 -1 33 21 32 27 -9 46
-33 16 -35 16 -55 -6z"/>
<path d="M3691 2507 l-34 -21 34 -12 c19 -7 39 -13 45 -13 16 -1 25 52 11 61
-16 10 -16 10 -56 -15z"/>
<path d="M3961 2501 c-12 -8 -13 -14 -3 -36 14 -30 38 -30 56 -2 9 15 7 21 -8
33 -23 16 -26 17 -45 5z"/>
<path d="M3840 2470 l-21 -30 46 0 46 0 -16 30 c-9 17 -20 30 -25 30 -5 0 -18
-13 -30 -30z"/>
</g>
</svg>
